<?xml version="1.0" encoding="UTF-8"?>
<svg width="1614px" height="1849px" viewBox="0 0 1614 1849" version="1.1" xmlns="http://www.w3.org/2000/svg" xmlns:xlink="http://www.w3.org/1999/xlink">
    <!-- Generator: Sketch 46.2 (44496) - http://www.bohemiancoding.com/sketch -->
    <title>LT+</title>
    <desc>Created with Sketch.</desc>
    <defs>
        <linearGradient x1="101.778525%" y1="86.4129785%" x2="3.75294185%" y2="77.3754711%" id="linearGradient-1">
            <stop stop-color="#0277BD" offset="0%"></stop>
            <stop stop-color="#00AEDE" offset="100%"></stop>
        </linearGradient>
        <linearGradient x1="3.82968773%" y1="28.0858293%" x2="97.6809834%" y2="76.2922051%" id="linearGradient-2">
            <stop stop-color="#0277BD" offset="0%"></stop>
            <stop stop-color="#00AEDE" offset="100%"></stop>
        </linearGradient>
    </defs>
    <g id="Page-1" stroke="none" stroke-width="1" fill="none" fill-rule="evenodd">
        <g id="LT+">
            <g id="Group-5" transform="translate(489.000000, 680.000000)">
                <g id="Group-2" transform="translate(0.000000, 356.000000)" fill-rule="nonzero">
                    <g id="Group-3">
                        <path d="M62.8574219,122.413031 C74.2273931,114.831178 85.5804293,99.3450976 100.265625,88.6816406 C109.999925,81.6132099 123.373127,77 131.342291,77 C139.489929,77 145.071836,78.4715796 150.264692,81.4051741 C154.989795,84.0745217 158.953786,87.3677166 168.641892,96.4895623 C182.710096,109.735494 189.964655,115.762407 201.736977,122.412893 C218.320585,131.781398 236.777622,136.647254 258.042291,136.647254 C279.306959,136.647254 297.763997,131.781398 314.347605,122.412893 C326.119927,115.762407 333.374486,109.735494 347.442167,96.4900551 C357.130796,87.3677166 361.094787,84.0745217 365.81989,81.4051741 C371.012746,78.4715796 376.594652,77 384.742291,77 C392.890058,77 398.47213,78.4716327 403.665205,81.405353 C408.39049,84.0748052 412.354519,87.3680144 422.043091,96.4901983 C436.11103,109.735735 443.365325,115.762409 455.137472,122.41284 C471.721008,131.781366 490.177882,136.647254 511.442291,136.647254 C532.706527,136.647254 551.163232,131.781441 567.746576,122.413031 C579.518665,115.762637 588.773085,109.735827 602.840596,96.4905479 C603.907316,95.4861776 645.167568,44.9390929 645.746273,44.3964844 L582.972844,12.0600971 C585.342776,9.65086464 581.847055,13.1171243 580.742415,14.1571988 C572.730648,24.7509766 550.852718,49.734375 539.41473,55.2998047 C533.958321,57.9547524 525.032404,60.2307732 517.412776,59.9487305 C509.059773,59.6395416 501.615069,57.5205642 498.208187,56.241848 C491.693538,53.7966843 483.830063,50.2792396 474.141491,41.1570556 C460.073552,27.9115193 452.819257,21.8848451 441.04711,15.2344138 C424.463574,5.86588806 406.0067,1 384.742291,1 C363.478055,1 345.02135,5.86581277 328.438006,15.2342232 C316.665917,21.884617 309.411497,27.911427 295.343985,41.156706 C285.65522,50.2791725 281.691152,53.572425 276.965887,56.241848 C271.772749,59.175585 266.190453,60.6472539 258.042291,60.6472539 C249.894129,60.6472539 244.311833,59.175585 239.118695,56.241848 C234.39343,53.572425 230.429362,50.2791725 220.74112,41.1571988 C206.673085,27.911427 199.418665,21.884617 187.646576,15.2342232 C171.063232,5.86581277 152.606527,1 131.342291,1 C94.6661995,1 58.0878906,10.2773438 0.0546875,88.6816406 L62.8574219,122.413031 Z" id="Shape" fill="url(#linearGradient-1)"></path>
                        <path d="M168.641892,96.4895623 C182.710096,109.735494 189.964655,115.762407 201.736977,122.412893 C218.320585,131.781398 236.777622,136.647254 258.042291,136.647254 C279.306959,136.647254 297.763997,131.781398 314.347605,122.412893 C326.119927,115.762407 333.374486,109.735494 347.442167,96.4900551 C357.130796,87.3677166 361.094787,84.0745217 365.81989,81.4051741 C371.012746,78.4715796 376.594652,77 384.742291,77 C392.890058,77 398.47213,78.4716327 403.665205,81.405353 C408.39049,84.0748052 412.354519,87.3680144 422.043091,96.4901983 C436.11103,109.735735 443.365325,115.762409 455.137472,122.41284 C471.721008,131.781366 490.177882,136.647254 511.442291,136.647254 C532.706527,136.647254 552.105267,131.761101 568.620605,122.412893 C606.95752,103.170898 645.051788,44.9469054 645.630493,44.4042969 C613.385295,73.8535156 583.469076,88.6344401 555.881836,88.7470703 C514.970699,88.9140979 483.830063,50.2792396 474.141491,41.1570556 C460.073552,27.9115193 452.819257,21.8848451 441.04711,15.2344138 C424.463574,5.86588806 406.0067,1 384.742291,1 C363.478055,1 345.02135,5.86581277 328.438006,15.2342232 C316.665917,21.884617 309.411497,27.911427 295.343985,41.156706 C285.65522,50.2791725 281.691152,53.572425 276.965887,56.241848 C271.772749,59.175585 266.190453,60.6472539 258.042291,60.6472539 C249.894129,60.6472539 244.311833,59.175585 239.118695,56.241848 C234.39343,53.572425 230.429362,50.2791725 220.74112,41.1571988 C206.673085,27.911427 199.418665,21.884617 187.646576,15.2342232 C171.063232,5.86581277 152.606527,1 131.342291,1 C115.894695,1 62.0253906,-0.827148438 0.0308837891,88.7470703 C33.1385498,60.5647786 63.3574219,48.0605469 90.6875,51.234375 C131.682617,55.9951172 164.147502,92.2578652 168.641892,96.4895623 Z" id="Shape-Copy-3" fill="url(#linearGradient-2)"></path>
                    </g>
                </g>
                <g id="Group" transform="translate(82.000000, 0.000000)" fill="#252525">
                    <path d="M415.179851,67.5145631 L415.179851,97.4123097 L480.804851,97.4123097 C480.804851,81.9328854 480.804851,70.3233173 480.804851,62.5836051 C480.804851,40.914505 458.371875,20.7199699 413.505923,2 L415.179851,67.5145631 Z" id="Combined-Shape-Copy-3" fill-rule="nonzero"></path>
                    <path d="M247.130923,67.5145631 L242.147403,2 C201.71975,16.0916431 181.505923,34.5861629 181.505923,57.4835596 C181.505923,66.3566152 181.505923,79.6661986 181.505923,97.4123097 L247.130923,97.4123097 L247.130923,67.5145631 Z" id="Combined-Shape-Copy-4" fill-rule="nonzero"></path>
                    <path d="M365.822692,67.5145631 L365.822692,299.168522 L300.308129,299.168522 L300.308129,67.5145631 L247.130923,67.5145631 C227.229961,67.5145631 212.739929,70.0274992 203.660827,75.0533715 C194.581726,80.0792438 187.196758,87.5322232 181.505923,97.4123097 C181.505923,79.6661986 181.505923,66.3566152 181.505923,57.4835596 C181.505923,23.1374646 212.607913,2 242.147403,2 C316.997675,2 374.198806,2 413.750797,2 C456.244998,2 481.049724,30.0799549 481.049724,62.5836051 C481.049724,70.3233173 480.966316,81.9328854 480.7995,97.4123097 C473.980814,87.5322232 466.30308,80.0792438 457.766296,75.0533715 C449.229512,70.0274992 435.115655,67.5145631 415.424724,67.5145631 L365.822692,67.5145631 Z" id="Combined-Shape-Copy-5" fill-rule="nonzero"></path>
                    <path d="M49.6380389,242.655567 L49.5059235,242.673057 C49.5500669,242.724809 49.5941851,242.776526 49.6382781,242.828208 C49.7179283,279.283898 68.2451639,298.179384 105.219985,299.514665 C105.504635,299.588222 105.763023,299.625 105.995148,299.625 C135.25093,299.625 179.134603,299.625 237.646166,299.625 L237.646166,234 L115.141416,234 L115.152583,233.918801 C115.152583,157.640436 115.152583,100.431663 115.152583,62.2924805 C115.152583,45.9854126 106.165328,0 44.696679,0 C3.7175798,6.33558152e-15 -8.76087683,6.33558152e-15 7.26130916,0 L7.26130916,65.625 L49.6380202,65.625 C49.6380202,144.276937 49.6380202,203.265889 49.6380202,242.591858 C49.6380202,242.6131 49.6380264,242.634337 49.6380389,242.655567 Z" id="Combined-Shape"></path>
                </g>
                <g id="Group-4" transform="translate(587.000000, 76.000000)" fill="#01AEDE">
                    <rect id="Rectangle-7-Copy" transform="translate(88.500000, 88.500000) rotate(-270.000000) translate(-88.500000, -88.500000) " x="56" y="0" width="65" height="177"></rect>
                    <rect id="Rectangle-7-Copy-2" transform="translate(88.500000, 88.500000) rotate(-180.000000) translate(-88.500000, -88.500000) " x="56" y="0" width="65" height="177"></rect>
                </g>
            </g>
        </g>
    </g>
</svg>