<?xml version="1.0" encoding="UTF-8"?>
<svg width="560px" height="560px" viewBox="0 0 560 560" version="1.1" xmlns="http://www.w3.org/2000/svg" xmlns:xlink="http://www.w3.org/1999/xlink">
    <!-- Generator: Sketch 46.2 (44496) - http://www.bohemiancoding.com/sketch -->
    <title>Group 20 Copy</title>
    <desc>Created with Sketch.</desc>
    <defs>
        <linearGradient x1="101.778525%" y1="86.4129785%" x2="3.75294185%" y2="77.3754711%" id="linearGradient-1">
            <stop stop-color="#0277BD" offset="0%"></stop>
            <stop stop-color="#00AEDE" offset="100%"></stop>
        </linearGradient>
        <linearGradient x1="3.82968773%" y1="28.0858293%" x2="97.6809834%" y2="76.2922051%" id="linearGradient-2">
            <stop stop-color="#0277BD" offset="0%"></stop>
            <stop stop-color="#00AEDE" offset="100%"></stop>
        </linearGradient>
    </defs>
    <g id="Page-1" stroke="none" stroke-width="1" fill="none" fill-rule="evenodd">
        <g id="Group-20-Copy">
            <circle id="Oval-4" fill="#FFFFFF" cx="280" cy="280" r="280"></circle>
            <g id="Group-5-Copy" transform="translate(110.000000, 160.000000)">
                <g id="Group-2" transform="translate(0.000000, 187.748479)" fill-rule="nonzero">
                    <g id="Group-3">
                        <path d="M33.7323861,64.5585964 C39.8340722,60.5600535 45.9266702,52.3929521 53.8074689,46.7692222 C59.0313734,43.0414494 66.2080915,40.6085193 70.4847373,40.6085193 C74.8571611,40.6085193 77.8526868,41.3846059 80.6394289,42.9317348 C83.1751519,44.3395043 85.3024243,46.0762805 90.5015389,50.8869903 C98.0512296,57.8726742 101.944383,61.0511679 108.26199,64.5585237 C117.161571,69.4993173 127.066525,72.0654889 138.478193,72.0654889 C149.88986,72.0654889 159.794815,69.4993173 168.694395,64.5585237 C175.012003,61.0511679 178.905156,57.8726742 186.454566,50.8872502 C191.653961,46.0762805 193.781234,44.3395043 196.316957,42.9317348 C199.103699,41.3846059 202.099224,40.6085193 206.471648,40.6085193 C210.844141,40.6085193 213.839756,41.3846339 216.626615,42.9318292 C219.162436,44.3396539 221.289729,46.0764376 226.489093,50.8873257 C234.038642,57.8728012 237.931654,61.051169 244.249167,64.5584958 C253.148708,69.4993005 263.053575,72.0654889 274.465104,72.0654889 C285.876539,72.0654889 295.781316,69.4993402 304.680754,64.5585964 C310.998237,61.0512892 315.964614,57.8728499 323.513933,50.8875101 C324.086387,50.3578218 346.228669,23.7001301 346.53923,23.4139674 L312.851919,6.36029462 C314.123741,5.08970549 312.247765,6.91775318 311.654961,7.46627118 C307.355452,13.0532534 295.614678,26.2290822 289.476491,29.1641972 C286.548313,30.5643725 281.758227,31.764708 277.66916,31.6159633 C273.186528,31.4529023 269.191333,30.3353888 267.363032,29.6610152 C263.866951,28.3714765 259.647023,26.5164347 254.447659,21.7055466 C246.89811,14.720071 243.005098,11.5417033 236.687585,8.03437647 C227.788044,3.0935718 217.883177,0.527383367 206.471648,0.527383367 C195.060213,0.527383367 185.155436,3.09353209 176.255998,8.03427591 C169.938515,11.541583 166.045437,14.7200224 158.496118,21.7053622 C153.29665,26.5163993 151.169335,28.2532059 148.633526,29.6610152 C145.846632,31.2082193 142.850897,31.984353 138.478193,31.984353 C134.105488,31.984353 131.109753,31.2082193 128.32286,29.6610152 C125.78705,28.2532059 123.659736,26.5163993 118.460549,21.7056221 C110.910949,14.7200224 107.01787,11.541583 100.700388,8.03427591 C91.8009493,3.09353209 81.8961727,0.527383367 70.4847373,0.527383367 C50.8025416,0.527383367 31.1728209,5.42010015 0.0293480039,46.7692222 L33.7323861,64.5585964 Z" id="Shape" fill="url(#linearGradient-1)"></path>
                        <path d="M90.5015389,50.8869903 C98.0512296,57.8726742 101.944383,61.0511679 108.26199,64.5585237 C117.161571,69.4993173 127.066525,72.0654889 138.478193,72.0654889 C149.88986,72.0654889 159.794815,69.4993173 168.694395,64.5585237 C175.012003,61.0511679 178.905156,57.8726742 186.454566,50.8872502 C191.653961,46.0762805 193.781234,44.3395043 196.316957,42.9317348 C199.103699,41.3846059 202.099224,40.6085193 206.471648,40.6085193 C210.844141,40.6085193 213.839756,41.3846339 216.626615,42.9318292 C219.162436,44.3396539 221.289729,46.0764376 226.489093,50.8873257 C234.038642,57.8728012 237.931654,61.051169 244.249167,64.5584958 C253.148708,69.4993005 263.053575,72.0654889 274.465104,72.0654889 C285.876539,72.0654889 296.286858,69.4886132 305.149801,64.5585237 C325.723276,54.4106158 346.166536,23.7042503 346.477097,23.4180876 C329.172737,38.9491157 313.118221,46.7443295 298.313551,46.8037288 C276.358621,46.8918163 259.647023,26.5164347 254.447659,21.7055466 C246.89811,14.720071 243.005098,11.5417033 236.687585,8.03437647 C227.788044,3.0935718 217.883177,0.527383367 206.471648,0.527383367 C195.060213,0.527383367 185.155436,3.09353209 176.255998,8.03427591 C169.938515,11.541583 166.045437,14.7200224 158.496118,21.7053622 C153.29665,26.5163993 151.169335,28.2532059 148.633526,29.6610152 C145.846632,31.2082193 142.850897,31.984353 138.478193,31.984353 C134.105488,31.984353 131.109753,31.2082193 128.32286,29.6610152 C125.78705,28.2532059 123.659736,26.5163993 118.460549,21.7056221 C110.910949,14.7200224 107.01787,11.541583 100.700388,8.03427591 C91.8009493,3.09353209 81.8961727,0.527383367 70.4847373,0.527383367 C62.1947968,0.527383367 33.2858772,-0.436224328 0.0165737611,46.8037288 C17.7837767,31.9408569 34.0007107,25.346333 48.6673757,27.0201572 C70.6673731,29.5308934 88.0896281,48.6552636 90.5015389,50.8869903 Z" id="Shape-Copy-3" fill="url(#linearGradient-2)"></path>
                    </g>
                </g>
                <g id="Group" transform="translate(44.005236, 0.000000)" fill="#252525">
                    <path d="M223.102222,35.7710676 L223.102222,51.8156698 L257.711755,51.8156698 C257.711755,43.508649 257.711755,37.2783833 257.711755,33.1248729 C257.711755,21.4961673 245.880977,10.6587859 222.21942,0.612728778 L223.102222,35.7710676 Z" id="Combined-Shape-Copy-3" fill-rule="nonzero"></path>
                    <path d="M132.31858,35.7710676 L129.690355,0.612728778 C108.369483,8.17499796 97.7090469,18.1000675 97.7090469,30.3879375 C97.7090469,35.1496558 97.7090469,42.2922332 97.7090469,51.8156698 L132.31858,51.8156698 L132.31858,35.7710676 Z" id="Combined-Shape-Copy-4" fill-rule="nonzero"></path>
                    <path d="M196.31846,35.7710676 L196.31846,157.776502 L161.160121,157.776502 L161.160121,35.7710676 L133.402308,35.7710676 C122.906872,35.7710676 115.26507,37.1196328 110.476903,39.8167632 C105.688735,42.5138937 101.794026,46.5135292 98.7927749,51.8156698 C98.7927749,42.2922332 98.7927749,35.1496558 98.7927749,30.3879375 C98.7927749,11.9561326 115.195447,0.612728778 130.774083,0.612728778 C170.248871,0.612728778 200.415796,0.612728778 221.274858,0.612728778 C243.685593,0.612728778 256.767193,15.6818145 256.767193,33.1248729 C256.767193,37.2783833 256.723205,43.508649 256.635229,51.8156698 C253.039168,46.5135292 248.990058,42.5138937 244.4879,39.8167632 C239.985743,37.1196328 232.542329,35.7710676 222.15766,35.7710676 L196.31846,35.7710676 Z" id="Combined-Shape-Copy-5" fill-rule="nonzero"></path>
                    <path d="M26.6382146,127.97251 L26.567315,127.981734 C26.5910045,128.009027 26.6146805,128.036302 26.6383429,128.063558 C26.6810872,147.289683 36.6237136,157.254847 56.4662222,157.959053 C56.6189796,157.997845 56.7576432,158.017241 56.8822132,158.017241 C72.5823055,158.017241 96.1324439,158.017241 127.532629,158.017241 L127.532629,123.407708 L61.7905505,123.407708 L61.7965434,123.364885 C61.7965434,83.1369441 61.7965434,52.9659885 61.7965434,32.8520181 C61.7965434,24.2519417 56.9735399,0 23.9864377,0 C1.99503628,3.34128032e-15 -4.70151767,3.34128032e-15 3.89677586,0 L3.89677586,34.6095335 L26.6382045,34.6095335 C26.6382045,76.0892568 26.6382045,107.199049 26.6382045,127.938911 C26.6382045,127.950114 26.6382079,127.961313 26.6382146,127.97251 Z" id="Combined-Shape"></path>
                </g>
            </g>
        </g>
    </g>
</svg>