<?xml version="1.0" encoding="UTF-8" standalone="no"?>
<!-- Created with Inkscape (http://www.inkscape.org/) -->

<svg
   xmlns:dc="http://purl.org/dc/elements/1.1/"
   xmlns:cc="http://creativecommons.org/ns#"
   xmlns:rdf="http://www.w3.org/1999/02/22-rdf-syntax-ns#"
   xmlns:svg="http://www.w3.org/2000/svg"
   xmlns="http://www.w3.org/2000/svg"
   xmlns:xlink="http://www.w3.org/1999/xlink"
   xmlns:sodipodi="http://sodipodi.sourceforge.net/DTD/sodipodi-0.dtd"
   xmlns:inkscape="http://www.inkscape.org/namespaces/inkscape"
   id="svg2"
   version="1.1"
   inkscape:version="0.48.2 r9819"
   width="396.68375"
   height="488.1975"
   xml:space="preserve"
   sodipodi:docname="languagetool-download.svg"><metadata
     id="metadata8"><rdf:RDF><cc:Work
         rdf:about=""><dc:format>image/svg+xml</dc:format><dc:type
           rdf:resource="http://purl.org/dc/dcmitype/StillImage" /><dc:title /></cc:Work></rdf:RDF></metadata><defs
     id="defs6"><linearGradient
       id="linearGradient3884"><stop
         style="stop-color:#fbdb2d;stop-opacity:1;"
         offset="0"
         id="stop3886" /><stop
         style="stop-color:#ec8622;stop-opacity:1;"
         offset="1"
         id="stop3888" /></linearGradient><clipPath
       clipPathUnits="userSpaceOnUse"
       id="clipPath16"><path
         d="m 12.497,10.184 293.876,0 0,94.899 -293.876,0 0,-94.899 z"
         id="path18" /></clipPath><clipPath
       clipPathUnits="userSpaceOnUse"
       id="clipPath28"><path
         d="m 0,390.558 317.347,0 L 317.347,0 0,0 0,390.558 z"
         id="path30" /></clipPath><clipPath
       clipPathUnits="userSpaceOnUse"
       id="clipPath40"><path
         d="m 24.496,112.082 c -6.626,0 -11.999,-5.372 -11.999,-12 l 0,0 0,-70.899 c 0,-6.625 5.373,-11.998 11.999,-11.998 l 0,0 269.877,0 c 6.627,0 12,5.373 12,11.998 l 0,0 0,70.899 c 0,6.628 -5.373,12 -12,12 l 0,0 -269.877,0 z"
         id="path42" /></clipPath><linearGradient
       x1="0"
       y1="0"
       x2="1"
       y2="0"
       gradientUnits="userSpaceOnUse"
       gradientTransform="matrix(0,94.896973,94.896973,0,159.43506,17.18457)"
       spreadMethod="pad"
       id="linearGradient48"><stop
         style="stop-opacity:1;stop-color:#0051ff"
         offset="0"
         id="stop50" /><stop
         style="stop-opacity:1;stop-color:#00a3ff"
         offset="1"
         id="stop52" /></linearGradient><clipPath
       clipPathUnits="userSpaceOnUse"
       id="clipPath60"><path
         d="m 0,390.558 317.347,0 L 317.347,0 0,0 0,390.558 z"
         id="path62" /></clipPath><clipPath
       clipPathUnits="userSpaceOnUse"
       id="clipPath92"><path
         d="m 0,390.558 317.347,0 L 317.347,0 0,0 0,390.558 z"
         id="path94" /></clipPath><clipPath
       clipPathUnits="userSpaceOnUse"
       id="clipPath104"><path
         d="m 11.496,282.659 293.877,0 0,94.898 -293.877,0 0,-94.898 z"
         id="path106" /></clipPath><clipPath
       clipPathUnits="userSpaceOnUse"
       id="clipPath116"><path
         d="m 0,390.558 317.347,0 L 317.347,0 0,0 0,390.558 z"
         id="path118" /></clipPath><clipPath
       clipPathUnits="userSpaceOnUse"
       id="clipPath128"><path
         d="m 23.496,384.557 c -6.627,0 -11.999,-5.372 -11.999,-11.999 l 0,0 0,-70.899 c 0,-6.626 5.372,-11.999 11.999,-11.999 l 0,0 269.877,0 c 6.627,0 12,5.373 12,11.999 l 0,0 0,70.899 c 0,6.627 -5.373,11.999 -12,11.999 l 0,0 -269.877,0 z"
         id="path130" /></clipPath><linearGradient
       x1="0"
       y1="0"
       x2="1"
       y2="0"
       gradientUnits="userSpaceOnUse"
       gradientTransform="matrix(0,94.897461,94.897461,0,158.43506,289.66016)"
       spreadMethod="pad"
       id="linearGradient136"><stop
         style="stop-opacity:1;stop-color:#0051ff"
         offset="0"
         id="stop138" /><stop
         style="stop-opacity:1;stop-color:#00a3ff"
         offset="1"
         id="stop140" /></linearGradient><clipPath
       clipPathUnits="userSpaceOnUse"
       id="clipPath148"><path
         d="m 0,390.558 317.347,0 L 317.347,0 0,0 0,390.558 z"
         id="path150" /></clipPath><clipPath
       clipPathUnits="userSpaceOnUse"
       id="clipPath180"><path
         d="m 0,390.558 317.347,0 L 317.347,0 0,0 0,390.558 z"
         id="path182" /></clipPath><linearGradient
       inkscape:collect="always"
       xlink:href="#linearGradient3884"
       id="linearGradient3890"
       x1="12.497"
       y1="64.6335"
       x2="306.373"
       y2="64.6335"
       gradientUnits="userSpaceOnUse" /><linearGradient
       inkscape:collect="always"
       xlink:href="#linearGradient3884"
       id="linearGradient3892"
       gradientUnits="userSpaceOnUse"
       x1="174.77728"
       y1="99.317429"
       x2="174.21962"
       y2="23.620386" /><linearGradient
       inkscape:collect="always"
       xlink:href="#linearGradient3884"
       id="linearGradient3935"
       gradientUnits="userSpaceOnUse"
       x1="174.77728"
       y1="99.317429"
       x2="174.21962"
       y2="23.620386" /><linearGradient
       inkscape:collect="always"
       xlink:href="#linearGradient3884"
       id="linearGradient3937"
       gradientUnits="userSpaceOnUse"
       x1="12.497"
       y1="64.6335"
       x2="306.373"
       y2="64.6335" /><linearGradient
       inkscape:collect="always"
       xlink:href="#linearGradient3884"
       id="linearGradient3939"
       gradientUnits="userSpaceOnUse"
       x1="12.497"
       y1="64.6335"
       x2="306.373"
       y2="64.6335" /><linearGradient
       inkscape:collect="always"
       xlink:href="#linearGradient3884"
       id="linearGradient3941"
       gradientUnits="userSpaceOnUse"
       x1="12.497"
       y1="64.6335"
       x2="306.373"
       y2="64.6335" /><linearGradient
       inkscape:collect="always"
       xlink:href="#linearGradient3884"
       id="linearGradient3943"
       gradientUnits="userSpaceOnUse"
       x1="12.497"
       y1="64.6335"
       x2="306.373"
       y2="64.6335" /></defs><sodipodi:namedview
     pagecolor="#ffffff"
     bordercolor="#666666"
     borderopacity="1"
     objecttolerance="10"
     gridtolerance="10"
     guidetolerance="10"
     inkscape:pageopacity="0"
     inkscape:pageshadow="2"
     inkscape:window-width="1920"
     inkscape:window-height="1141"
     id="namedview4"
     showgrid="false"
     inkscape:zoom="0.58616282"
     inkscape:cx="833.70867"
     inkscape:cy="-84.953432"
     inkscape:window-x="-3"
     inkscape:window-y="-3"
     inkscape:window-maximized="1"
     inkscape:current-layer="g10"
     showguides="true"
     inkscape:guide-bbox="true" /><g
     id="g10"
     inkscape:groupmode="layer"
     inkscape:label="languagetool download button-blue"
     transform="matrix(1.25,0,0,-1.25,0,488.1975)"><g
   id="g12"
   transform="scale(1.5056117,1)"><g
     id="g14"
     clip-path="url(#clipPath16)"><g
       id="g20"
       transform="translate(306.3726,22.1836)"><g
         id="g3900"><path
           inkscape:connector-curvature="0"
           id="path22"
           style="fill:#c4c4c4;fill-opacity:1;fill-rule:nonzero;stroke:none"
           d="m 0,0 c 0,-6.627 -5.373,-12 -12,-12 l -269.876,0 c -6.628,0 -12,5.373 -12,12 l 0,70.898 c 0,6.627 5.372,12 12,12 l 269.876,0 c 6.627,0 12,-5.373 12,-12 L 0,0 z" /></g></g></g></g><g
   id="g24"
   style="fill:#da6e1f;fill-opacity:1"
   transform="scale(1.5056117,1)"><g
     id="g26"
     clip-path="url(#clipPath28)"
     style="fill:#da6e1f;fill-opacity:1"><g
       id="g32"
       transform="translate(306.3726,25.4082)"
       style="fill:#da6e1f;fill-opacity:1"><path
         inkscape:connector-curvature="0"
         d="m 0,0 c 0,-6.627 -5.373,-12 -12,-12 l -269.876,0 c -6.628,0 -12,5.373 -12,12 l 0,70.898 c 0,6.627 5.372,12 12,12 l 269.876,0 c 6.627,0 12,-5.373 12,-12 L 0,0 z"
         style="fill:#da6e1f;fill-opacity:1;fill-rule:nonzero;stroke:none"
         id="path34" /></g></g></g><g
   id="g36"
   style="fill:url(#linearGradient3943);fill-opacity:1"
   transform="scale(1.5056117,1)"><g
     id="g38"
     clip-path="url(#clipPath40)"
     style="fill:url(#linearGradient3941);fill-opacity:1"><g
       id="g44"
       style="fill:url(#linearGradient3939);fill-opacity:1"><g
         id="g46"
         style="fill:url(#linearGradient3937);fill-opacity:1"><path
           inkscape:connector-curvature="0"
           d="m 24.496,112.082 c -6.626,0 -11.999,-5.372 -11.999,-12 l 0,0 0,-70.899 c 0,-6.625 5.373,-11.998 11.999,-11.998 l 0,0 269.877,0 c 6.627,0 12,5.373 12,11.998 l 0,0 0,70.899 c 0,6.628 -5.373,12 -12,12 l 0,0 -269.877,0 z"
           style="fill:url(#linearGradient3935);fill-opacity:1;stroke:none"
           id="path54" /></g></g></g></g><g
   id="g3101"
   style="fill:#0066ff"
   transform="translate(4.8,0)"><g
     transform="translate(41.3296,35.8643)"
     id="g68"
     style="fill:#0066ff"><path
       inkscape:connector-curvature="0"
       id="path70"
       style="fill:#0066ff;fill-opacity:1;fill-rule:nonzero;stroke:none"
       d="m 0,0 c 1.191,-0.105 2.569,-3.49 3.229,-4.377 1.667,-2.25 3.689,-3.379 6.47,-3.623 2.282,-0.201 4.508,1.283 5.926,2.914 0.84,0.967 2.463,4.969 3.776,5.086 4.46,0.393 4.498,7.395 0,7 C 16.971,6.785 15.094,5.943 13.478,4.084 12.636,3.117 11.013,-0.885 9.699,-1 8.699,-1.088 7.008,2.652 6.472,3.377 4.803,5.625 2.781,6.754 0,7 -4.5,7.395 -4.461,0.393 0,0" /></g><g
     transform="translate(60.731,35.8643)"
     id="g72"
     style="fill:#0066ff"><path
       inkscape:connector-curvature="0"
       id="path74"
       style="fill:#0066ff;fill-opacity:1;fill-rule:nonzero;stroke:none"
       d="M 0,0 C 1.19,-0.105 2.569,-3.492 3.228,-4.377 4.895,-6.627 6.916,-7.756 9.697,-8 c 2.282,-0.201 4.508,1.285 5.925,2.914 0.84,0.967 2.463,4.969 3.776,5.086 4.459,0.393 4.498,7.395 0,7 C 16.967,6.785 15.09,5.943 13.475,4.084 12.633,3.119 11.009,-0.885 9.697,-1 8.697,-1.088 7.006,2.652 6.471,3.377 4.802,5.625 2.78,6.754 0,7 -4.499,7.396 -4.46,0.393 0,0" /></g><g
     transform="translate(36.4702,29.3057)"
     id="g76"
     style="fill:#0066ff"><path
       inkscape:connector-curvature="0"
       id="path78"
       style="fill:#0066ff;fill-opacity:1;fill-rule:nonzero;stroke:none"
       d="M 0,0 C 0.939,1.586 1.771,3.232 2.77,4.785 3.18,5.42 3.527,5.793 4.113,6.326 3.779,6.023 4.691,6.605 4.219,6.414 c 0.732,0.299 -0.196,0.107 0.64,0.145 4.496,0.189 4.515,7.189 0,7 C -1.084,13.307 -3.402,7.994 -6.044,3.533 -8.35,-0.361 -2.297,-3.881 0,0" /></g><g
     transform="translate(80.1294,35.8643)"
     id="g80"
     style="fill:#0066ff"><path
       inkscape:connector-curvature="0"
       id="path82"
       style="fill:#0066ff;fill-opacity:1;fill-rule:nonzero;stroke:none"
       d="M 0,0 C 0.426,-0.02 0.664,-0.145 0.709,-0.182 1.355,-0.691 1.545,-1 1.945,-1.621 2.927,-3.143 3.582,-4.865 4.297,-6.518 5.056,-8.27 7.59,-8.648 9.086,-7.773 10.877,-6.725 11.1,-4.734 10.34,-2.984 8.302,1.727 5.838,6.762 0,7 -4.517,7.184 -4.498,0.184 0,0" /></g></g><g
   transform="matrix(1,0,0,-1,31.2482,51.8638)"
   style="fill:#000000"
   id="text84"><path
     d="M 6.336,-4.352 C 6.336,-1.2800031 7.6160031,0 10.688,0 L 30.72,0 c 3.071997,0 4.352,-1.2800031 4.352,-4.352 l 0,-6.912 -7.616,0 0,2.752 c 0,0.8959991 -0.512001,1.408 -1.408,1.408 l -9.92,0 c -0.895999,0 -1.408,-0.5120009 -1.408,-1.408 l 0,-32.576 c 0,-3.007997 -1.280003,-4.352 -4.352,-4.352 l -8.192,0 0,7.104 2.752,0 c 0.8959991,0 1.408,0.512001 1.408,1.408 l 0,32.576"
     style="font-size:64px;font-variant:normal;font-weight:600;font-stretch:normal;writing-mode:lr-tb;fill:#000000;fill-opacity:1;fill-rule:nonzero;stroke:none;font-family:Museo 700;-inkscape-font-specification:Museo-700"
     id="path3112"
     inkscape:connector-curvature="0" /><path
     d="m 43.007999,0 8.384,0 0,-38.336 6.976,0 c 0.895999,0 1.408,0.512001 1.408,1.408 l 0,2.752 7.36,0 0,-7.168 c 0,-3.007997 -1.024003,-4.096 -4.096,-4.096 l -31.68,0 c -3.071997,0 -4.096,1.088003 -4.096,4.096 l 0,7.168 7.36,0 0,-2.752 c 0,-0.895999 0.512001,-1.408 1.408,-1.408 l 6.976,0 0,38.336"
     style="font-size:64px;font-variant:normal;font-weight:600;font-stretch:normal;writing-mode:lr-tb;fill:#000000;fill-opacity:1;fill-rule:nonzero;stroke:none;font-family:Museo 700;-inkscape-font-specification:Museo-700"
     id="path3114"
     inkscape:connector-curvature="0" /></g>
<g
   id="g3094"
   transform="translate(156.8,0)"><path
     d="m 278.7417,46.2129 c 0.993,1.317 0.456,2.396 -1.194,2.396 l -26.805,0 c -1.65,0 -2.186,-1.077 -1.19,-2.393 l 12.811,-16.933 c 0.995,-1.316 2.622,-1.314 3.615,0.003 l 12.763,16.927 z"
     style="fill:#ffffff;fill-opacity:1;fill-rule:nonzero;stroke:none"
     id="path66"
     inkscape:connector-curvature="0" /><g
     id="g88"><g
       clip-path="url(#clipPath92)"
       id="g90"><g
         transform="translate(273.0063,46.5576)"
         id="g96"><path
           id="path98"
           style="fill:#ffffff;fill-opacity:1;fill-rule:nonzero;stroke:none"
           d="m 0,0 c 0,-1.65 -1.35,-3 -3,-3 l -11.833,0 c -1.65,0 -3,1.35 -3,3 l 0,11.166 c 0,1.65 1.35,3 3,3 l 11.833,0 c 1.65,0 3,-1.35 3,-3 L 0,0 z"
           inkscape:connector-curvature="0" /></g></g></g></g><g
   id="g144"><g
     id="g146"
     clip-path="url(#clipPath148)"><g
       id="g152"
       transform="translate(269.7417,184.2129)"><path
         d="m 0,0 c 0.993,1.317 0.456,2.396 -1.194,2.396 l -26.805,0 c -1.65,0 -2.186,-1.077 -1.19,-2.393 l 12.811,-16.933 c 0.995,-1.316 2.622,-1.314 3.615,0.003 L 0,0 z"
         style="fill:#ffffff;fill-opacity:1;fill-rule:nonzero;stroke:none"
         id="path154" /></g><g
       id="g156"
       transform="translate(32.3296,173.8643)"><path
         d="m 0,0 c 1.191,-0.105 2.569,-3.49 3.229,-4.377 1.667,-2.25 3.689,-3.379 6.47,-3.623 2.282,-0.201 4.508,1.283 5.926,2.914 0.84,0.967 2.463,4.969 3.776,5.086 4.46,0.393 4.498,7.395 0,7 C 16.971,6.785 15.094,5.943 13.478,4.084 12.636,3.117 11.013,-0.885 9.699,-1 8.699,-1.088 7.008,2.652 6.472,3.377 4.803,5.625 2.781,6.754 0,7 -4.5,7.395 -4.461,0.393 0,0"
         style="fill:#ffffff;fill-opacity:1;fill-rule:nonzero;stroke:none"
         id="path158" /></g><g
       id="g160"
       transform="translate(51.731,173.8643)"><path
         d="M 0,0 C 1.19,-0.105 2.569,-3.492 3.228,-4.377 4.895,-6.627 6.916,-7.756 9.697,-8 c 2.282,-0.201 4.508,1.285 5.925,2.914 0.84,0.967 2.463,4.969 3.776,5.086 4.459,0.393 4.498,7.395 0,7 C 16.967,6.785 15.09,5.943 13.475,4.084 12.633,3.119 11.009,-0.885 9.697,-1 8.697,-1.088 7.006,2.652 6.471,3.377 4.802,5.625 2.78,6.754 0,7 -4.499,7.396 -4.46,0.393 0,0"
         style="fill:#ffffff;fill-opacity:1;fill-rule:nonzero;stroke:none"
         id="path162" /></g><g
       id="g164"
       transform="translate(27.4702,167.3057)"><path
         d="M 0,0 C 0.939,1.586 1.771,3.232 2.77,4.785 3.18,5.42 3.527,5.793 4.113,6.326 3.779,6.023 4.691,6.605 4.219,6.414 c 0.732,0.299 -0.196,0.107 0.64,0.145 4.496,0.189 4.515,7.189 0,7 C -1.084,13.307 -3.402,7.994 -6.044,3.533 -8.35,-0.361 -2.297,-3.881 0,0"
         style="fill:#ffffff;fill-opacity:1;fill-rule:nonzero;stroke:none"
         id="path166" /></g><g
       id="g168"
       transform="translate(71.1294,173.8643)"><path
         d="M 0,0 C 0.426,-0.02 0.664,-0.145 0.709,-0.182 1.355,-0.691 1.545,-1 1.945,-1.621 2.927,-3.143 3.582,-4.865 4.297,-6.518 5.056,-8.27 7.59,-8.648 9.086,-7.773 10.877,-6.725 11.1,-4.734 10.34,-2.984 8.302,1.727 5.838,6.762 0,7 -4.517,7.184 -4.498,0.184 0,0"
         style="fill:#ffffff;fill-opacity:1;fill-rule:nonzero;stroke:none"
         id="path170" /></g></g></g><text
   transform="matrix(1,0,0,-1,17.4482,189.8633)"
   id="text172"><tspan
     style="fill:#ffffff;fill-opacity:1;fill-rule:nonzero;stroke:none;font-family:Museo 700;font-variant:normal;font-weight:600;font-stretch:normal;font-size:64;writing-mode:lr;-inkscape-font-specification:Museo-700"
     x="0 27.904"
     y="0"
     sodipodi:role="line"
     id="tspan174">LT</tspan></text>

<g
   id="g176"><g
     id="g178"
     clip-path="url(#clipPath180)"><g
       id="g184"
       transform="translate(264.0063,184.5576)"><path
         d="m 0,0 c 0,-1.65 -1.35,-3 -3,-3 l -11.833,0 c -1.65,0 -3,1.35 -3,3 l 0,11.166 c 0,1.65 1.35,3 3,3 l 11.833,0 c 1.65,0 3,-1.35 3,-3 L 0,0 z"
         style="fill:#ffffff;fill-opacity:1;fill-rule:nonzero;stroke:none"
         id="path186" /></g></g></g></g></svg>