<?xml version="1.0" ?><svg height="16px" version="1.1" viewBox="0 0 16 16" width="16px" xmlns="http://www.w3.org/2000/svg" xmlns:sketch="http://www.bohemiancoding.com/sketch/ns" xmlns:xlink="http://www.w3.org/1999/xlink"><title/><defs/><g fill="none" fill-rule="evenodd" id="Icons with numbers" stroke="none" stroke-width="1"><g fill="#666" id="Group" transform="translate(0.000000, -48.000000)"><path d="M2,57 C2,56 3,55 4,55 L4,53 C4,51.5 5.5,50 7,50 L9,50 C10.5,50 12,51.5 12,53 L12,55 C13,55 14,56 14,57 L14,61 C14,62 13,63 12,63 L4,63 C3,63 2,62 2,61 L2,57 L2,57 Z M5,53 L5,55 L11,55 L11,53 C11,52 10,51 9,51 L7,51 C6,51 5,52 5,53 L5,53 Z M5,53" id="Shape"/></g></g></svg>